Topmarks-Book-orig.ufo
<glyph name="ampersand" format="1">
  <advance width="1541"/>
  <unicode hex="0026"/>
  <outline>
    <contour>
      <point x="279" y="1291" type="curve" smooth="yes"/>
      <point x="279" y="1452"/>
      <point x="388" y="1586"/>
      <point x="631" y="1586" type="curve" smooth="yes"/>
      <point x="824" y="1586"/>
      <point x="966" y="1478"/>
      <point x="966" y="1293" type="curve" smooth="yes"/>
      <point x="966" y="1117"/>
      <point x="775" y="963"/>
      <point x="652" y="887" type="curve"/>
      <point x="1064" y="401" type="line"/>
      <point x="1125" y="496"/>
      <point x="1179" y="662"/>
      <point x="1199" y="801" type="curve" smooth="yes"/>
      <point x="1206" y="846"/>
      <point x="1210" y="888"/>
      <point x="1210" y="930" type="curve"/>
      <point x="1359" y="909" type="line"/>
      <point x="1351" y="669"/>
      <point x="1272" y="430"/>
      <point x="1169" y="286" type="curve"/>
      <point x="1238" y="210"/>
      <point x="1299" y="151"/>
      <point x="1402" y="115" type="curve" smooth="yes"/>
      <point x="1431" y="105"/>
      <point x="1466" y="96"/>
      <point x="1505" y="87" type="curve"/>
      <point x="1381" y="-12" type="line"/>
      <point x="1241" y="10"/>
      <point x="1165" y="101"/>
      <point x="1084" y="187" type="curve"/>
      <point x="977" y="71"/>
      <point x="838" y="-24"/>
      <point x="627" y="-24" type="curve" smooth="yes"/>
      <point x="338" y="-24"/>
      <point x="127" y="139"/>
      <point x="127" y="401" type="curve" smooth="yes"/>
      <point x="127" y="658"/>
      <point x="317" y="829"/>
      <point x="456" y="921" type="curve"/>
      <point x="342" y="1029"/>
      <point x="279" y="1168"/>
    </contour>
    <contour>
      <point x="286" y="418" type="curve" smooth="yes"/>
      <point x="286" y="197"/>
      <point x="453" y="115"/>
      <point x="630" y="115" type="curve" smooth="yes"/>
      <point x="802" y="115"/>
      <point x="898" y="197"/>
      <point x="985" y="292" type="curve"/>
      <point x="534" y="817" type="line"/>
      <point x="380" y="707"/>
      <point x="286" y="586"/>
    </contour>
    <contour>
      <point x="638" y="1452" type="curve" smooth="yes"/>
      <point x="487" y="1452"/>
      <point x="432" y="1380"/>
      <point x="432" y="1288" type="curve" smooth="yes"/>
      <point x="432" y="1188"/>
      <point x="497" y="1064"/>
      <point x="571" y="984" type="curve"/>
      <point x="671" y="1044"/>
      <point x="812" y="1168"/>
      <point x="812" y="1289" type="curve" smooth="yes"/>
      <point x="812" y="1398"/>
      <point x="735" y="1452"/>
    </contour>
  </outline>
</glyph>
<glyph name="quotesingle" format="1">
  <advance width="548"/>
  <unicode hex="0027"/>
  <outline>
    <contour>
      <point x="192" y="994" type="line"/>
      <point x="190" y="1456" type="line"/>
      <point x="356" y="1456" type="line"/>
      <point x="306" y="994" type="line"/>
    </contour>
  </outline>
</glyph>
<glyph name="parenleft" format="1">
  <advance width="640"/>
  <unicode hex="0028"/>
  <outline>
    <contour>
      <point x="411" y="-205" type="line"/>
      <point x="230" y="81"/>
      <point x="136" y="374"/>
      <point x="136" y="671" type="curve" smooth="yes"/>
      <point x="136" y="966"/>
      <point x="228" y="1264"/>
      <point x="417" y="1560" type="curve"/>
      <point x="564" y="1560" type="line"/>
      <point x="388" y="1283"/>
      <point x="303" y="978"/>
      <point x="303" y="676" type="curve" smooth="yes"/>
      <point x="303" y="369"/>
      <point x="391" y="64"/>
      <point x="560" y="-205" type="curve"/>
    </contour>
  </outline>
</glyph>
<glyph name="period" format="1">
  <advance width="603"/>
  <unicode hex="002E"/>
  <outline>
    <contour>
      <point x="302" y="-16" type="curve" smooth="yes"/>
      <point x="233" y="-16"/>
      <point x="195" y="33"/>
      <point x="195" y="90" type="curve" smooth="yes"/>
      <point x="195" y="156"/>
      <point x="249" y="195"/>
      <point x="303" y="195" type="curve" smooth="yes"/>
      <point x="372" y="195"/>
      <point x="410" y="146"/>
      <point x="410" y="89" type="curve" smooth="yes"/>
      <point x="410" y="23"/>
      <point x="356" y="-16"/>
    </contour>
  </outline>
</glyph>
<glyph name="slash" format="1">
  <advance width="952"/>
  <unicode hex="002F"/>
  <outline>
    <contour>
      <point x="80" y="0" type="line"/>
      <point x="705" y="1560" type="line"/>
      <point x="872" y="1560" type="line"/>
      <point x="243" y="0" type="line"/>
    </contour>
  </outline>
</glyph>
<glyph name="three" format="1">
  <advance width="1316"/>
  <unicode hex="0033"/>
  <outline>
    <contour>
      <point x="658" y="-24" type="curve" smooth="yes"/>
      <point x="515" y="-24"/>
      <point x="350" y="16"/>
      <point x="235" y="85" type="curve"/>
      <point x="288" y="225" type="line"/>
      <point x="413" y="159"/>
      <point x="538" y="125"/>
      <point x="646" y="125" type="curve" smooth="yes"/>
      <point x="844" y="125"/>
      <point x="950" y="245"/>
      <point x="950" y="430" type="curve" smooth="yes"/>
      <point x="950" y="446" type="line" smooth="yes"/>
      <point x="944" y="639"/>
      <point x="805" y="736"/>
      <point x="566" y="736" type="curve" smooth="yes"/>
      <point x="488" y="736" type="line"/>
      <point x="488" y="884" type="line"/>
      <point x="552" y="884" type="line" smooth="yes"/>
      <point x="778" y="884"/>
      <point x="901" y="990"/>
      <point x="901" y="1179" type="curve" smooth="yes"/>
      <point x="901" y="1345"/>
      <point x="786" y="1435"/>
      <point x="630" y="1435" type="curve" smooth="yes"/>
      <point x="487" y="1435"/>
      <point x="380" y="1391"/>
      <point x="281" y="1291" type="curve"/>
      <point x="185" y="1400" type="line"/>
      <point x="288" y="1523"/>
      <point x="464" y="1586"/>
      <point x="626" y="1586" type="curve" smooth="yes"/>
      <point x="858" y="1586"/>
      <point x="1066" y="1446"/>
      <point x="1066" y="1185" type="curve" smooth="yes"/>
      <point x="1066" y="1022"/>
      <point x="980" y="867"/>
      <point x="818" y="819" type="curve"/>
      <point x="1008" y="780"/>
      <point x="1120" y="623"/>
      <point x="1120" y="434" type="curve" smooth="yes"/>
      <point x="1120" y="128"/>
      <point x="907" y="-24"/>
    </contour>
  </outline>
</glyph>
<glyph name="six" format="1">
  <advance width="1316"/>
  <unicode hex="0036"/>
  <outline>
    <contour>
      <point x="686" y="-24" type="curve" smooth="yes"/>
      <point x="313" y="-24"/>
      <point x="185" y="249"/>
      <point x="185" y="585" type="curve" smooth="yes"/>
      <point x="185" y="960"/>
      <point x="353" y="1451"/>
      <point x="915" y="1587" type="curve"/>
      <point x="951" y="1452" type="line"/>
      <point x="574" y="1352"/>
      <point x="408" y="1082"/>
      <point x="368" y="781" type="curve"/>
      <point x="433" y="903"/>
      <point x="604" y="946"/>
      <point x="710" y="946" type="curve" smooth="yes"/>
      <point x="974" y="946"/>
      <point x="1151" y="754"/>
      <point x="1151" y="464" type="curve" smooth="yes"/>
      <point x="1151" y="175"/>
      <point x="955" y="-24"/>
    </contour>
    <contour>
      <point x="681" y="126" type="curve" smooth="yes"/>
      <point x="858" y="126"/>
      <point x="984" y="254"/>
      <point x="984" y="459" type="curve" smooth="yes"/>
      <point x="984" y="652"/>
      <point x="895" y="802"/>
      <point x="690" y="802" type="curve" smooth="yes"/>
      <point x="505" y="802"/>
      <point x="355" y="683"/>
      <point x="355" y="492" type="curve" smooth="yes"/>
      <point x="355" y="263"/>
      <point x="465" y="126"/>
    </contour>
  </outline>
</glyph>
<glyph name="seven" format="1">
  <advance width="1316"/>
  <unicode hex="0037"/>
  <outline>
    <contour>
      <point x="407" y="0" type="line"/>
      <point x="931" y="1415" type="line"/>
      <point x="209" y="1415" type="line"/>
      <point x="209" y="1560" type="line"/>
      <point x="1131" y="1560" type="line"/>
      <point x="1131" y="1469" type="line"/>
      <point x="593" y="0" type="line"/>
    </contour>
  </outline>
</glyph>
<glyph name="greater" format="1">
  <advance width="1165"/>
  <unicode hex="003E"/>
  <outline>
    <contour>
      <point x="91" y="58" type="line"/>
      <point x="91" y="212" type="line"/>
      <point x="859" y="555" type="line"/>
      <point x="96" y="926" type="line"/>
      <point x="96" y="1078" type="line"/>
      <point x="1080" y="594" type="line"/>
      <point x="1080" y="505" type="line"/>
    </contour>
  </outline>
</glyph>
<glyph name="D" format="1">
  <advance width="1526"/>
  <unicode hex="0044"/>
  <outline>
    <contour>
      <point x="372" y="138" type="line"/>
      <point x="621" y="138" type="line" smooth="yes"/>
      <point x="991" y="138"/>
      <point x="1218" y="388"/>
      <point x="1218" y="775" type="curve" smooth="yes"/>
      <point x="1218" y="1232"/>
      <point x="959" y="1422"/>
      <point x="527" y="1422" type="curve" smooth="yes"/>
      <point x="372" y="1422" type="line"/>
    </contour>
    <contour>
      <point x="198" y="0" type="line"/>
      <point x="198" y="1560" type="line"/>
      <point x="523" y="1560" type="line" smooth="yes"/>
      <point x="1049" y="1560"/>
      <point x="1400" y="1327"/>
      <point x="1400" y="778" type="curve" smooth="yes"/>
      <point x="1400" y="295"/>
      <point x="1076" y="0"/>
      <point x="610" y="0" type="curve" smooth="yes"/>
    </contour>
  </outline>
</glyph>
<glyph name="H" format="1">
  <advance width="1510"/>
  <unicode hex="0048"/>
  <outline>
    <contour>
      <point x="198" y="0" type="line"/>
      <point x="198" y="1560" type="line"/>
      <point x="372" y="1560" type="line"/>
      <point x="372" y="889" type="line"/>
      <point x="1138" y="889" type="line"/>
      <point x="1138" y="1560" type="line"/>
      <point x="1312" y="1560" type="line"/>
      <point x="1312" y="0" type="line"/>
      <point x="1138" y="0" type="line"/>
      <point x="1138" y="741" type="line"/>
      <point x="372" y="741" type="line"/>
      <point x="372" y="0" type="line"/>
    </contour>
  </outline>
</glyph>
<glyph name="L" format="1">
  <advance width="1070"/>
  <unicode hex="004C"/>
  <outline>
    <contour>
      <point x="198" y="0" type="line"/>
      <point x="198" y="1560" type="line"/>
      <point x="372" y="1560" type="line"/>
      <point x="372" y="138" type="line"/>
      <point x="1051" y="138" type="line"/>
      <point x="1051" y="0" type="line"/>
    </contour>
  </outline>
</glyph>
<glyph name="O" format="1">
  <advance width="1646"/>
  <unicode hex="004F"/>
  <outline>
    <contour>
      <point x="823" y="-24" type="curve" smooth="yes"/>
      <point x="368" y="-24"/>
      <point x="126" y="340"/>
      <point x="126" y="782" type="curve" smooth="yes"/>
      <point x="126" y="1226"/>
      <point x="368" y="1586"/>
      <point x="823" y="1586" type="curve" smooth="yes"/>
      <point x="1278" y="1586"/>
      <point x="1520" y="1226"/>
      <point x="1520" y="782" type="curve" smooth="yes"/>
      <point x="1520" y="340"/>
      <point x="1278" y="-24"/>
    </contour>
    <contour>
      <point x="823" y="126" type="curve" smooth="yes"/>
      <point x="1110" y="126"/>
      <point x="1336" y="353"/>
      <point x="1336" y="782" type="curve" smooth="yes"/>
      <point x="1336" y="1211"/>
      <point x="1110" y="1436"/>
      <point x="823" y="1436" type="curve" smooth="yes"/>
      <point x="536" y="1436"/>
      <point x="310" y="1211"/>
      <point x="310" y="782" type="curve" smooth="yes"/>
      <point x="310" y="353"/>
      <point x="536" y="126"/>
    </contour>
  </outline>
</glyph>
<glyph name="P" format="1">
  <advance width="1238"/>
  <unicode hex="0050"/>
  <outline>
    <contour>
      <point x="198" y="0" type="line"/>
      <point x="198" y="1560" type="line"/>
      <point x="597" y="1560" type="line" smooth="yes"/>
      <point x="1012" y="1560"/>
      <point x="1169" y="1420"/>
      <point x="1169" y="1124" type="curve" smooth="yes"/>
      <point x="1169" y="838"/>
      <point x="991" y="691"/>
      <point x="621" y="691" type="curve" smooth="yes"/>
      <point x="372" y="691" type="line"/>
      <point x="372" y="0" type="line"/>
    </contour>
    <contour>
      <point x="372" y="840" type="line"/>
      <point x="640" y="840" type="line" smooth="yes"/>
      <point x="881" y="840"/>
      <point x="985" y="936"/>
      <point x="985" y="1122" type="curve" smooth="yes"/>
      <point x="985" y="1326"/>
      <point x="899" y="1422"/>
      <point x="620" y="1422" type="curve" smooth="yes"/>
      <point x="372" y="1422" type="line"/>
    </contour>
  </outline>
</glyph>
<glyph name="underscore" format="1">
  <advance width="1383"/>
  <unicode hex="005F"/>
  <outline>
    <contour>
      <point x="200" y="-152" type="line"/>
      <point x="200" y="-24" type="line"/>
      <point x="1183" y="-24" type="line"/>
      <point x="1183" y="-152" type="line"/>
    </contour>
  </outline>
</glyph>
<glyph name="a" format="1">
  <advance width="1206"/>
  <unicode hex="0061"/>
  <outline>
    <contour>
      <point x="994" y="241" type="line"/>
      <point x="994" y="163" name="inserted"/>
      <point x="1025" y="124"/>
      <point x="1088" y="124" type="curve" smooth="yes"/>
      <point x="1123" y="124" name="inserted"/>
      <point x="1152" y="128"/>
      <point x="1176" y="136" type="curve"/>
      <point x="1198" y="7" type="line"/>
      <point x="1142" y="-12" name="inserted"/>
      <point x="1087" y="-21"/>
      <point x="1032" y="-21" type="curve" smooth="yes"/>
      <point x="917" y="-21" name="inserted"/>
      <point x="850" y="34"/>
      <point x="830" y="145" type="curve"/>
    </contour>
    <contour>
      <point x="545" y="-22" type="curve" smooth="yes"/>
      <point x="256" y="-22"/>
      <point x="106.0" y="215.836"/>
      <point x="106.0" y="475.063" type="curve" smooth="yes"/>
      <point x="106.0" y="752.235"/>
      <point x="279.026" y="1052"/>
      <point x="675.157" y="1052" type="curve" smooth="yes"/>
      <point x="802.157" y="1052"/>
      <point x="916" y="1017"/>
      <point x="994" y="976" type="curve"/>
      <point x="994" y="241" type="line"/>
      <point x="830" y="145" type="line"/>
      <point x="774" y="46"/>
      <point x="694" y="-22"/>
    </contour>
    <contour>
      <point x="554.939" y="109.893" type="curve" smooth="yes"/>
      <point x="746.411" y="109.893"/>
      <point x="824.157" y="258.03"/>
      <point x="824.157" y="453" type="curve" smooth="yes"/>
      <point x="824.157" y="894" type="line"/>
      <point x="782.851" y="907.425"/>
      <point x="719.93" y="920.286"/>
      <point x="645.065" y="920.286" type="curve" smooth="yes"/>
      <point x="397.319" y="920.286"/>
      <point x="280.313" y="681.548"/>
      <point x="280.313" y="465.131" type="curve" smooth="yes"/>
      <point x="280.313" y="278.577"/>
      <point x="364.945" y="109.893"/>
    </contour>
  </outline>
</glyph>
<glyph name="b" format="1">
  <advance width="1196"/>
  <unicode hex="0062"/>
  <outline>
    <contour>
      <point x="591" y="-22" type="curve" smooth="yes"/>
      <point x="358" y="-22"/>
      <point x="181" y="71"/>
      <point x="181" y="71" type="curve"/>
      <point x="181" y="1560" type="line"/>
      <point x="351" y="1560" type="line"/>
      <point x="351" y="879" type="line"/>
      <point x="443" y="1013"/>
      <point x="552" y="1052"/>
      <point x="687" y="1052" type="curve" smooth="yes"/>
      <point x="910" y="1052"/>
      <point x="1090" y="865"/>
      <point x="1090" y="545" type="curve" smooth="yes"/>
      <point x="1090" y="215"/>
      <point x="895" y="-22"/>
    </contour>
    <contour>
      <point x="582" y="114" type="curve" smooth="yes"/>
      <point x="806" y="114"/>
      <point x="916" y="309"/>
      <point x="916" y="550" type="curve" smooth="yes"/>
      <point x="916" y="793"/>
      <point x="800" y="920"/>
      <point x="658" y="920" type="curve" smooth="yes"/>
      <point x="445" y="920"/>
      <point x="351" y="728"/>
      <point x="351" y="538" type="curve" smooth="yes"/>
      <point x="351" y="151" type="line"/>
      <point x="351" y="151"/>
      <point x="434" y="114"/>
    </contour>
  </outline>
</glyph>
<glyph name="e" format="1">
  <advance width="1070"/>
  <unicode hex="0065"/>
  <outline>
    <contour>
      <point x="600" y="-22" type="curve" smooth="yes"/>
      <point x="341" y="-22"/>
      <point x="106" y="168"/>
      <point x="106" y="505" type="curve" smooth="yes"/>
      <point x="106" y="803"/>
      <point x="282" y="1052"/>
      <point x="612" y="1052" type="curve" smooth="yes"/>
      <point x="819" y="1052"/>
      <point x="951" y="922"/>
      <point x="951" y="755" type="curve" smooth="yes"/>
      <point x="951" y="510"/>
      <point x="613" y="398"/>
      <point x="290" y="398" type="curve"/>
      <point x="335" y="166"/>
      <point x="495" y="110"/>
      <point x="615" y="110" type="curve" smooth="yes"/>
      <point x="766" y="110"/>
      <point x="877" y="186"/>
      <point x="940" y="223" type="curve"/>
      <point x="998" y="100" type="line"/>
      <point x="879" y="17"/>
      <point x="756" y="-22"/>
    </contour>
    <contour>
      <point x="279" y="519" type="curve"/>
      <point x="485" y="519"/>
      <point x="788" y="597"/>
      <point x="788" y="758" type="curve" smooth="yes"/>
      <point x="788" y="852"/>
      <point x="715" y="920"/>
      <point x="600" y="920" type="curve" smooth="yes"/>
      <point x="418" y="920"/>
      <point x="280" y="761"/>
    </contour>
  </outline>
</glyph>
<glyph name="g" format="1">
  <advance width="1161.048"/>
  <unicode hex="0067"/>
  <outline>
    <contour>
      <point x="555.83" y="109.893" type="curve" smooth="yes"/>
      <point x="747.302" y="109.893"/>
      <point x="836.048" y="258.029"/>
      <point x="836.048" y="453" type="curve" smooth="yes"/>
      <point x="836.048" y="894" type="line"/>
      <point x="794.741" y="907.425"/>
      <point x="720.821" y="920.285"/>
      <point x="645.955" y="920.285" type="curve" smooth="yes"/>
      <point x="398.21" y="920.285"/>
      <point x="281.204" y="681.548"/>
      <point x="281.204" y="465.131" type="curve" smooth="yes"/>
      <point x="281.204" y="278.577"/>
      <point x="365.836" y="109.893"/>
    </contour>
    <contour>
      <point x="528.048" y="-22" type="curve" smooth="yes"/>
      <point x="285.349" y="-22"/>
      <point x="106.0" y="186.521"/>
      <point x="106.0" y="469.838" type="curve" smooth="yes"/>
      <point x="106.0" y="846.2"/>
      <point x="367.277" y="1052"/>
      <point x="653.048" y="1052" type="curve" smooth="yes"/>
      <point x="782.048" y="1052"/>
      <point x="926.048" y="1023"/>
      <point x="1006.048" y="971" type="curve"/>
      <point x="1006.048" y="9" type="line" smooth="yes"/>
      <point x="1006.048" y="-309"/>
      <point x="845.048" y="-566"/>
      <point x="497.048" y="-566" type="curve" smooth="yes"/>
      <point x="409.048" y="-566"/>
      <point x="309.048" y="-549"/>
      <point x="196.048" y="-513" type="curve"/>
      <point x="214.048" y="-370" type="line"/>
      <point x="319.048" y="-407"/>
      <point x="410.048" y="-424"/>
      <point x="489.048" y="-424" type="curve" smooth="yes"/>
      <point x="721.048" y="-424"/>
      <point x="836.048" y="-272"/>
      <point x="836.048" y="-12" type="curve" smooth="yes"/>
      <point x="836.048" y="136" type="line"/>
      <point x="770.048" y="21"/>
      <point x="664.048" y="-22"/>
    </contour>
  </outline>
</glyph>
<glyph name="j" format="1">
  <advance width="595"/>
  <unicode hex="006A"/>
  <outline>
    <contour>
      <point x="215.0" y="-464.0" type="curve" smooth="yes"/>
      <point x="354.0" y="-464.0"/>
      <point x="431.0" y="-390.0"/>
      <point x="431.0" y="-226.0" type="curve" smooth="yes"/>
      <point x="431.0" y="1026.0" type="line"/>
      <point x="261.0" y="1026.0" type="line"/>
      <point x="261.0" y="-207.0" type="line" smooth="yes"/>
      <point x="261.0" y="-288.0"/>
      <point x="229.0" y="-322.0"/>
      <point x="154.0" y="-322.0" type="curve" smooth="yes"/>
      <point x="128.0" y="-322.0"/>
      <point x="97.0" y="-318.0"/>
      <point x="60.0" y="-310.0" type="curve"/>
      <point x="41.0" y="-436.0" type="line"/>
      <point x="107.0" y="-455.0"/>
      <point x="165.0" y="-464.0"/>
    </contour>
    <contour>
      <point x="350" y="1236" type="line" smooth="yes"/>
      <point x="290" y="1236"/>
      <point x="230" y="1274"/>
      <point x="230" y="1347" type="curve" smooth="yes"/>
      <point x="230" y="1421"/>
      <point x="290" y="1458"/>
      <point x="350" y="1458" type="curve" smooth="yes"/>
      <point x="351" y="1458" type="line" smooth="yes"/>
      <point x="409" y="1458"/>
      <point x="468" y="1420"/>
      <point x="468" y="1346" type="curve" smooth="yes"/>
      <point x="468" y="1273"/>
      <point x="410" y="1236"/>
      <point x="351" y="1236" type="curve" smooth="yes"/>
    </contour>
  </outline>
</glyph>
<glyph name="k" format="1">
  <advance width="1073"/>
  <unicode hex="006B"/>
  <outline>
    <contour>
      <point x="350" y="0" type="line"/>
      <point x="180" y="0" type="line"/>
      <point x="180" y="1560" type="line"/>
      <point x="350" y="1560" type="line"/>
      <point x="350" y="556" type="line"/>
      <point x="791" y="1026" type="line"/>
      <point x="998" y="1026" type="line"/>
      <point x="506" y="513" type="line"/>
      <point x="1060" y="0" type="line"/>
      <point x="843" y="0" type="line"/>
      <point x="350" y="460" type="line"/>
    </contour>
  </outline>
</glyph>
<glyph name="l" format="1">
  <advance width="661"/>
  <unicode hex="006C"/>
  <outline>
    <contour>
      <point x="214" y="216" type="line"/>
      <point x="214" y="1560" type="line"/>
      <point x="384" y="1560" type="line"/>
      <point x="384" y="235" type="line"/>
    </contour>
    <component base="lc_kick_2" xOffset="144"/>
  </outline>
</glyph>
<glyph name="n" format="1">
  <advance width="1253"/>
  <unicode hex="006E"/>
  <outline>
    <contour>
      <point x="870" y="216" type="line"/>
      <point x="870" y="621" type="line" smooth="yes"/>
      <point x="870" y="859"/>
      <point x="793" y="920"/>
      <point x="661" y="920" type="curve" smooth="yes"/>
      <point x="500" y="920"/>
      <point x="351" y="815"/>
      <point x="351" y="552" type="curve" smooth="yes"/>
      <point x="351" y="0" type="line"/>
      <point x="181" y="0" type="line"/>
      <point x="181" y="634" type="line" smooth="yes"/>
      <point x="181" y="833"/>
      <point x="138" y="1026"/>
      <point x="138" y="1026" type="curve"/>
      <point x="309" y="1026" type="line"/>
      <point x="309" y="1026"/>
      <point x="327" y="977"/>
      <point x="339" y="878" type="curve"/>
      <point x="421" y="993"/>
      <point x="528" y="1052"/>
      <point x="686" y="1052" type="curve" smooth="yes"/>
      <point x="880" y="1052"/>
      <point x="1040" y="946"/>
      <point x="1040" y="625" type="curve" smooth="yes"/>
      <point x="1040" y="235" type="line"/>
    </contour>
    <component base="lc_kick" xOffset="800"/>
  </outline>
</glyph>
<glyph name="q" format="1">
  <advance width="1183"/>
  <unicode hex="0071"/>
  <outline>
    <contour>
      <point x="999" y="-544" type="line" smooth="yes"/>
      <point x="983" y="-551"/>
      <point x="965" y="-555"/>
      <point x="946" y="-555" type="curve" smooth="yes"/>
      <point x="896" y="-555"/>
      <point x="839" y="-526"/>
      <point x="839" y="-441" type="curve" smooth="yes"/>
      <point x="839" y="153" type="line"/>
      <point x="763" y="28"/>
      <point x="650" y="-22"/>
      <point x="514" y="-22" type="curve" smooth="yes"/>
      <point x="274" y="-22"/>
      <point x="106" y="162"/>
      <point x="106" y="438" type="curve" smooth="yes"/>
      <point x="106" y="820"/>
      <point x="328" y="1052"/>
      <point x="660" y="1052" type="curve" smooth="yes"/>
      <point x="789" y="1052"/>
      <point x="929" y="1006"/>
      <point x="1009" y="954" type="curve"/>
      <point x="1009" y="-394" type="line"/>
      <point x="1270" y="-285" type="line"/>
      <point x="1316" y="-405" type="line"/>
    </contour>
    <contour>
      <point x="535" y="110" type="curve" smooth="yes"/>
      <point x="739" y="110"/>
      <point x="839" y="273"/>
      <point x="839" y="476" type="curve" smooth="yes"/>
      <point x="839" y="881" type="line"/>
      <point x="799" y="893"/>
      <point x="730" y="920"/>
      <point x="657" y="920" type="curve" smooth="yes"/>
      <point x="425" y="920"/>
      <point x="280" y="734"/>
      <point x="280" y="448" type="curve" smooth="yes"/>
      <point x="280" y="248"/>
      <point x="379" y="110"/>
    </contour>
  </outline>
</glyph>
<glyph name="t" format="1">
  <advance width="776"/>
  <unicode hex="0074"/>
  <outline>
    <contour>
      <point x="255" y="920" type="line"/>
      <point x="255" y="216" type="line"/>
      <point x="425" y="235" type="line" smooth="yes"/>
      <point x="425" y="920" type="line"/>
      <point x="681" y="920" type="line"/>
      <point x="681" y="1026" type="line"/>
      <point x="425" y="1026" type="line"/>
      <point x="425" y="1353" type="line"/>
      <point x="255" y="1353" type="line"/>
      <point x="255" y="1026" type="line"/>
      <point x="52" y="1026" type="line"/>
      <point x="52" y="920" type="line"/>
    </contour>
    <component base="lc_kick_2" xOffset="185"/>
  </outline>
</glyph>
<glyph name="u" format="1">
  <advance width="1216"/>
  <unicode hex="0075"/>
  <outline>
    <contour>
      <point x="533" y="-22" type="curve" smooth="yes"/>
      <point x="352" y="-22"/>
      <point x="176" y="78"/>
      <point x="176" y="347" type="curve" smooth="yes"/>
      <point x="176" y="365" type="line"/>
      <point x="182" y="582" type="line" smooth="yes"/>
      <point x="182" y="599"/>
      <point x="183" y="617"/>
      <point x="183" y="634" type="curve" smooth="yes"/>
      <point x="183" y="832"/>
      <point x="154" y="1026"/>
      <point x="154" y="1026" type="curve"/>
      <point x="325" y="1026" type="line"/>
      <point x="325" y="1026"/>
      <point x="354" y="906"/>
      <point x="354" y="667" type="curve" smooth="yes"/>
      <point x="354" y="640"/>
      <point x="354" y="613"/>
      <point x="353" y="583" type="curve" smooth="yes"/>
      <point x="347" y="365" type="line" smooth="yes"/>
      <point x="347" y="352" type="line" smooth="yes"/>
      <point x="347" y="165"/>
      <point x="445" y="110"/>
      <point x="558" y="110" type="curve" smooth="yes"/>
      <point x="723" y="110"/>
      <point x="853" y="259"/>
      <point x="853" y="482" type="curve"/>
      <point x="853" y="1026" type="line"/>
      <point x="1023" y="1026" type="line"/>
      <point x="1023" y="235" type="line" smooth="yes"/>
      <point x="859" y="145" type="line"/>
      <point x="786" y="51"/>
      <point x="698" y="-22"/>
    </contour>
    <component base="lc_kick" xOffset="783"/>
  </outline>
</glyph>
<glyph name="v" format="1">
  <advance width="1060"/>
  <unicode hex="0076"/>
  <outline>
    <contour>
      <point x="448" y="0" type="line"/>
      <point x="46" y="1026" type="line"/>
      <point x="228" y="1026" type="line"/>
      <point x="481" y="353" type="line"/>
      <point x="538" y="167" type="line"/>
      <point x="626" y="465"/>
      <point x="738" y="739"/>
      <point x="837" y="1026" type="curve"/>
      <point x="1014" y="1026" type="line"/>
      <point x="616" y="0" type="line"/>
    </contour>
  </outline>
</glyph>
<glyph name="cent" format="1">
  <advance width="1059"/>
  <unicode hex="00A2"/>
  <outline>
    <contour>
      <point x="553" y="-235" type="line"/>
      <point x="553" y="-20" type="line"/>
      <point x="298" y="6"/>
      <point x="105" y="213"/>
      <point x="105" y="503" type="curve" smooth="yes"/>
      <point x="105" y="805"/>
      <point x="277" y="1024"/>
      <point x="553" y="1049" type="curve"/>
      <point x="553" y="1281" type="line"/>
      <point x="661" y="1281" type="line"/>
      <point x="661" y="1049" type="line"/>
      <point x="790" y="1039"/>
      <point x="892" y="991"/>
      <point x="952" y="912" type="curve"/>
      <point x="875" y="801" type="line"/>
      <point x="826" y="862"/>
      <point x="753" y="898"/>
      <point x="661" y="907" type="curve"/>
      <point x="661" y="120" type="line"/>
      <point x="743" y="129"/>
      <point x="836" y="159"/>
      <point x="932" y="225" type="curve"/>
      <point x="968" y="87" type="line"/>
      <point x="862" y="23"/>
      <point x="756" y="-10"/>
      <point x="661" y="-20" type="curve"/>
      <point x="661" y="-235" type="line"/>
    </contour>
    <contour>
      <point x="553" y="122" type="curve"/>
      <point x="553" y="904" type="line"/>
      <point x="373" y="874"/>
      <point x="278" y="714"/>
      <point x="278" y="508" type="curve" smooth="yes"/>
      <point x="278" y="285"/>
      <point x="390" y="148"/>
    </contour>
  </outline>
</glyph>
<glyph name="sterling" format="1">
  <advance width="1273"/>
  <unicode hex="00A3"/>
  <outline>
    <contour>
      <point x="194" y="0" type="line"/>
      <point x="194" y="138" type="line"/>
      <point x="298" y="199"/>
      <point x="351" y="332"/>
      <point x="351" y="500" type="curve" smooth="yes"/>
      <point x="351" y="711" type="line"/>
      <point x="168" y="711" type="line"/>
      <point x="168" y="843" type="line"/>
      <point x="350" y="843" type="line"/>
      <point x="350" y="1029" type="line" smooth="yes"/>
      <point x="350" y="1379"/>
      <point x="473" y="1586"/>
      <point x="769" y="1586" type="curve" smooth="yes"/>
      <point x="908" y="1586"/>
      <point x="1017" y="1556"/>
      <point x="1094" y="1495" type="curve"/>
      <point x="1042" y="1364" type="line"/>
      <point x="972" y="1407"/>
      <point x="886" y="1436"/>
      <point x="779" y="1436" type="curve" smooth="yes"/>
      <point x="579" y="1436"/>
      <point x="522" y="1294"/>
      <point x="522" y="1085" type="curve" smooth="yes"/>
      <point x="522" y="843" type="line"/>
      <point x="863" y="843" type="line"/>
      <point x="863" y="711" type="line"/>
      <point x="524" y="711" type="line"/>
      <point x="524" y="551" type="line" smooth="yes"/>
      <point x="524" y="352"/>
      <point x="481" y="217"/>
      <point x="387" y="141" type="curve"/>
      <point x="1137" y="141" type="line"/>
      <point x="1137" y="0" type="line"/>
    </contour>
  </outline>
</glyph>
<glyph name="dieresis" format="1">
  <advance width="896"/>
  <unicode hex="00A8"/>
  <outline>
    <contour>
      <point x="200" y="1362" type="curve" smooth="yes"/>
      <point x="200" y="1386" type="line" smooth="yes"/>
      <point x="200" y="1431"/>
      <point x="237" y="1468"/>
      <point x="282" y="1468" type="curve" smooth="yes"/>
      <point x="327" y="1468"/>
      <point x="364" y="1431"/>
      <point x="364" y="1386" type="curve" smooth="yes"/>
      <point x="364" y="1362" type="line" smooth="yes"/>
      <point x="364" y="1317"/>
      <point x="327" y="1280"/>
      <point x="282" y="1280" type="curve" smooth="yes"/>
      <point x="237" y="1280"/>
      <point x="200" y="1317"/>
    </contour>
    <contour>
      <point x="532" y="1362" type="curve" smooth="yes"/>
      <point x="532" y="1386" type="line" smooth="yes"/>
      <point x="532" y="1431"/>
      <point x="569" y="1468"/>
      <point x="614" y="1468" type="curve" smooth="yes"/>
      <point x="659" y="1468"/>
      <point x="696" y="1431"/>
      <point x="696" y="1386" type="curve" smooth="yes"/>
      <point x="696" y="1362" type="line" smooth="yes"/>
      <point x="696" y="1317"/>
      <point x="659" y="1280"/>
      <point x="614" y="1280" type="curve" smooth="yes"/>
      <point x="569" y="1280"/>
      <point x="532" y="1317"/>
    </contour>
  </outline>
</glyph>
<glyph name="acute" format="1">
  <advance width="618"/>
  <unicode hex="00B4"/>
  <outline>
    <contour>
      <point x="93" y="1136" type="line"/>
      <point x="319" y="1456" type="line"/>
      <point x="531" y="1456" type="line"/>
      <point x="223" y="1136" type="line"/>
    </contour>
  </outline>
</glyph>
<glyph name="periodcentered" format="1">
  <advance width="617"/>
  <unicode hex="00B7"/>
  <outline>
    <contour>
      <point x="308" y="1134" type="curve" smooth="yes"/>
      <point x="402" y="1134"/>
      <point x="450" y="1061"/>
      <point x="450" y="988" type="curve" smooth="yes"/>
      <point x="450" y="915"/>
      <point x="402" y="842"/>
      <point x="308" y="842" type="curve" smooth="yes"/>
      <point x="214" y="842"/>
      <point x="167" y="916"/>
      <point x="167" y="989" type="curve" smooth="yes"/>
      <point x="167" y="1062"/>
      <point x="214" y="1134"/>
    </contour>
  </outline>
</glyph>
<glyph name="Oslash" format="1">
  <advance width="1626"/>
  <unicode hex="00D8"/>
  <outline>
    <component base="O"/>
    <contour>
      <point x="521" y="-175" type="line"/>
      <point x="418" y="-142" type="line"/>
      <point x="1125" y="1604" type="line"/>
      <point x="1232" y="1571" type="line"/>
    </contour>
  </outline>
</glyph>
<glyph name="ae" format="1">
  <advance width="1716"/>
  <unicode hex="00E6"/>
  <outline>
    <contour>
      <point x="451" y="-22" type="curve" smooth="yes"/>
      <point x="232" y="-22"/>
      <point x="91" y="96"/>
      <point x="91" y="286" type="curve" smooth="yes"/>
      <point x="91" y="603"/>
      <point x="420" y="609"/>
      <point x="738" y="609" type="curve" smooth="yes"/>
      <point x="773" y="609" type="line"/>
      <point x="773" y="632" type="line" smooth="yes"/>
      <point x="773" y="831"/>
      <point x="667" y="916"/>
      <point x="531" y="916" type="curve" smooth="yes"/>
      <point x="422" y="916"/>
      <point x="309" y="898"/>
      <point x="198" y="798" type="curve"/>
      <point x="130" y="908" type="line"/>
      <point x="273" y="1021"/>
      <point x="394" y="1052"/>
      <point x="541" y="1052" type="curve" smooth="yes"/>
      <point x="692" y="1052"/>
      <point x="820" y="976"/>
      <point x="873" y="849" type="curve"/>
      <point x="945" y="972"/>
      <point x="1068" y="1052"/>
      <point x="1247" y="1052" type="curve" smooth="yes"/>
      <point x="1454" y="1052"/>
      <point x="1591" y="922"/>
      <point x="1591" y="755" type="curve" smooth="yes"/>
      <point x="1591" y="510"/>
      <point x="1253" y="445"/>
      <point x="921" y="445" type="curve"/>
      <point x="945" y="233"/>
      <point x="1073" y="114"/>
      <point x="1257" y="114" type="curve" smooth="yes"/>
      <point x="1408" y="114"/>
      <point x="1499" y="179"/>
      <point x="1564" y="232" type="curve"/>
      <point x="1632" y="122" type="line"/>
      <point x="1512" y="25"/>
      <point x="1402" y="-22"/>
      <point x="1246" y="-22" type="curve" smooth="yes"/>
      <point x="1066" y="-22"/>
      <point x="927" y="61"/>
      <point x="852" y="213" type="curve"/>
      <point x="782" y="87"/>
      <point x="659" y="-22"/>
    </contour>
    <contour>
      <point x="474" y="114" type="curve" smooth="yes"/>
      <point x="694" y="114"/>
      <point x="775" y="276"/>
      <point x="775" y="493" type="curve"/>
      <point x="637" y="490" type="line" smooth="yes"/>
      <point x="452" y="485"/>
      <point x="260" y="465"/>
      <point x="260" y="294" type="curve" smooth="yes"/>
      <point x="260" y="167"/>
      <point x="347" y="114"/>
    </contour>
    <contour>
      <point x="919" y="566" type="curve"/>
      <point x="1152" y="566"/>
      <point x="1428" y="597"/>
      <point x="1428" y="758" type="curve" smooth="yes"/>
      <point x="1428" y="852"/>
      <point x="1363" y="916"/>
      <point x="1248" y="916" type="curve" smooth="yes"/>
      <point x="1082" y="916"/>
      <point x="933" y="794"/>
    </contour>
  </outline>
</glyph>
<glyph name="hbar" format="1">
  <advance width="1233"/>
  <unicode hex="0127"/>
  <outline>
    <component base="h"/>
    <contour>
      <point x="55" y="1207" type="line"/>
      <point x="55" y="1341" type="line"/>
      <point x="606" y="1341" type="line"/>
      <point x="606" y="1207" type="line"/>
    </contour>
  </outline>
</glyph>
<glyph name="breve" format="1">
  <advance width="639"/>
  <unicode hex="02D8"/>
  <outline>
    <contour>
      <point x="323" y="1221" type="curve" smooth="yes"/>
      <point x="209" y="1221"/>
      <point x="95" y="1299"/>
      <point x="82" y="1456" type="curve"/>
      <point x="169" y="1456" type="line"/>
      <point x="184" y="1369"/>
      <point x="250" y="1327"/>
      <point x="318" y="1327" type="curve" smooth="yes"/>
      <point x="388" y="1327"/>
      <point x="460" y="1371"/>
      <point x="480" y="1456" type="curve"/>
      <point x="566" y="1456" type="line"/>
      <point x="553" y="1299"/>
      <point x="438" y="1221"/>
    </contour>
  </outline>
</glyph>
<glyph name="dotaccent" format="1">
  <advance width="534"/>
  <unicode hex="02D9"/>
  <outline>
    <contour>
      <point x="194" y="1293" type="line"/>
      <point x="194" y="1456" type="line"/>
      <point x="354" y="1456" type="line"/>
      <point x="354" y="1293" type="line"/>
    </contour>
  </outline>
</glyph>
<glyph name="uni0326" format="1">
  <advance width="10"/>
  <unicode hex="0326"/>
  <outline>
    <contour>
      <point x="-183" y="-463" type="line"/>
      <point x="-76" y="0" type="line"/>
      <point x="111" y="0" type="line"/>
      <point x="-52" y="-463" type="line"/>
    </contour>
  </outline>
</glyph>
<glyph name="uni03BC" format="1">
  <advance width="1239"/>
  <unicode hex="03BC"/>
  <outline>
    <contour>
      <point x="541" y="-22" type="curve" smooth="yes"/>
      <point x="471" y="-22"/>
      <point x="401" y="-8"/>
      <point x="342" y="26" type="curve"/>
      <point x="342" y="-202" type="line"/>
      <point x="187" y="-202" type="line"/>
      <point x="185" y="582" type="line" smooth="yes"/>
      <point x="186" y="602"/>
      <point x="186" y="621"/>
      <point x="186" y="639" type="curve" smooth="yes"/>
      <point x="186" y="913"/>
      <point x="126" y="1000"/>
      <point x="126" y="1000" type="curve"/>
      <point x="291" y="1026" type="line"/>
      <point x="291" y="1026"/>
      <point x="351" y="951"/>
      <point x="351" y="656" type="curve" smooth="yes"/>
      <point x="351" y="636"/>
      <point x="351" y="616"/>
      <point x="350" y="595" type="curve" smooth="yes"/>
      <point x="344" y="365" type="line" smooth="yes"/>
      <point x="344" y="352" type="line" smooth="yes"/>
      <point x="344" y="165"/>
      <point x="448" y="114"/>
      <point x="561" y="114" type="curve" smooth="yes"/>
      <point x="726" y="114"/>
      <point x="862" y="259"/>
      <point x="862" y="482" type="curve" smooth="yes"/>
      <point x="862" y="1026" type="line"/>
      <point x="1026" y="1026" type="line"/>
      <point x="1026" y="328" type="line" smooth="yes"/>
      <point x="1026" y="182"/>
      <point x="1045" y="121"/>
      <point x="1171" y="121" type="curve"/>
      <point x="1142" y="-14" type="line"/>
      <point x="1005" y="-14"/>
      <point x="911" y="32"/>
      <point x="881" y="161" type="curve"/>
      <point x="806" y="37"/>
      <point x="693" y="-22"/>
    </contour>
  </outline>
</glyph>
<glyph name="quotesinglbase" format="1">
  <advance width="572"/>
  <unicode hex="201A"/>
  <outline>
    <contour>
      <point x="143" y="-238" type="line"/>
      <point x="249" y="201" type="line"/>
      <point x="430" y="201" type="line"/>
      <point x="276" y="-238" type="line"/>
    </contour>
  </outline>
</glyph>
<glyph name="dagger" format="1">
  <advance width="1185"/>
  <unicode hex="2020"/>
  <outline>
    <contour>
      <point x="513" y="0" type="line"/>
      <point x="513" y="904" type="line"/>
      <point x="190" y="904" type="line"/>
      <point x="190" y="1026" type="line"/>
      <point x="513" y="1026" type="line"/>
      <point x="513" y="1456" type="line"/>
      <point x="654" y="1456" type="line"/>
      <point x="654" y="1026" type="line"/>
      <point x="994" y="1026" type="line"/>
      <point x="994" y="904" type="line"/>
      <point x="654" y="904" type="line"/>
      <point x="654" y="0" type="line"/>
    </contour>
  </outline>
</glyph>
<glyph name="perthousand" format="1">
  <advance width="2567"/>
  <unicode hex="2030"/>
  <outline>
    <component base="percent"/>
    <contour>
      <point x="2154" y="89" type="curve" smooth="yes"/>
      <point x="2295" y="89"/>
      <point x="2355" y="214"/>
      <point x="2355" y="360" type="curve" smooth="yes"/>
      <point x="2355" y="507"/>
      <point x="2295" y="625"/>
      <point x="2155" y="625" type="curve" smooth="yes"/>
      <point x="2013" y="625"/>
      <point x="1951" y="500"/>
      <point x="1951" y="353" type="curve" smooth="yes"/>
      <point x="1951" y="198"/>
      <point x="2016" y="89"/>
    </contour>
    <contour>
      <point x="2151" y="-24" type="curve" smooth="yes"/>
      <point x="1923" y="-24"/>
      <point x="1807" y="149"/>
      <point x="1807" y="354" type="curve" smooth="yes"/>
      <point x="1807" y="593"/>
      <point x="1951" y="738"/>
      <point x="2156" y="738" type="curve" smooth="yes"/>
      <point x="2375" y="738"/>
      <point x="2499" y="585"/>
      <point x="2499" y="359" type="curve" smooth="yes"/>
      <point x="2499" y="121"/>
      <point x="2355" y="-24"/>
    </contour>
  </outline>
</glyph>
<glyph name="guilsinglleft" format="1">
  <advance width="652"/>
  <unicode hex="2039"/>
  <outline>
    <contour>
      <point x="384" y="171" type="line"/>
      <point x="115" y="541" type="line"/>
      <point x="389" y="914" type="line"/>
      <point x="548" y="914" type="line"/>
      <point x="285" y="541" type="line"/>
      <point x="540" y="171" type="line"/>
    </contour>
  </outline>
</glyph>
<glyph name="fraction" format="1">
  <advance width="982"/>
  <unicode hex="2044"/>
  <outline>
    <contour>
      <point x="0" y="0" type="line"/>
      <point x="833" y="1456" type="line"/>
      <point x="982" y="1456" type="line"/>
      <point x="151" y="0" type="line"/>
    </contour>
  </outline>
</glyph>
<glyph name="infinity" format="1">
  <advance width="1683"/>
  <unicode hex="221E"/>
  <outline>
    <contour>
      <point x="461" y="236" type="curve" smooth="yes"/>
      <point x="234" y="236"/>
      <point x="106" y="416"/>
      <point x="106" y="612" type="curve" smooth="yes"/>
      <point x="106" y="818"/>
      <point x="254" y="944"/>
      <point x="456" y="944" type="curve" smooth="yes"/>
      <point x="652" y="944"/>
      <point x="750" y="823"/>
      <point x="847" y="692" type="curve"/>
      <point x="939" y="817"/>
      <point x="1049" y="944"/>
      <point x="1231" y="944" type="curve" smooth="yes"/>
      <point x="1453" y="944"/>
      <point x="1581" y="793"/>
      <point x="1581" y="595" type="curve" smooth="yes"/>
      <point x="1581" y="366"/>
      <point x="1408" y="236"/>
      <point x="1229" y="236" type="curve" smooth="yes"/>
      <point x="1087" y="236"/>
      <point x="971" y="320"/>
      <point x="845" y="488" type="curve"/>
      <point x="752" y="363"/>
      <point x="629" y="236"/>
    </contour>
    <contour>
      <point x="464" y="355" type="curve" smooth="yes"/>
      <point x="625" y="355"/>
      <point x="702" y="481"/>
      <point x="778" y="589" type="curve"/>
      <point x="700" y="705"/>
      <point x="604" y="829"/>
      <point x="454" y="829" type="curve" smooth="yes"/>
      <point x="308" y="829"/>
      <point x="236" y="716"/>
      <point x="236" y="592" type="curve" smooth="yes"/>
      <point x="236" y="444"/>
      <point x="337" y="355"/>
    </contour>
    <contour>
      <point x="1232" y="355" type="curve" smooth="yes"/>
      <point x="1377" y="355"/>
      <point x="1442" y="466"/>
      <point x="1442" y="618" type="curve" smooth="yes"/>
      <point x="1442" y="755"/>
      <point x="1342" y="829"/>
      <point x="1227" y="829" type="curve" smooth="yes"/>
      <point x="1067" y="829"/>
      <point x="983" y="702"/>
      <point x="911" y="592" type="curve"/>
      <point x="999" y="473"/>
      <point x="1065" y="355"/>
    </contour>
  </outline>
</glyph>
<glyph name="integral" format="1">
  <advance width="794"/>
  <unicode hex="222B"/>
  <outline>
    <contour>
      <point x="180" y="-259" type="curve" smooth="yes"/>
      <point x="121" y="-259"/>
      <point x="92" y="-251"/>
      <point x="44" y="-238" type="curve"/>
      <point x="42" y="-109" type="line"/>
      <point x="68" y="-119"/>
      <point x="115" y="-124"/>
      <point x="152" y="-124" type="curve" smooth="yes"/>
      <point x="288" y="-124"/>
      <point x="312" y="-43"/>
      <point x="312" y="93" type="curve" smooth="yes"/>
      <point x="312" y="1150" type="line" smooth="yes"/>
      <point x="312" y="1372"/>
      <point x="388" y="1526"/>
      <point x="610" y="1526" type="curve" smooth="yes"/>
      <point x="665" y="1526"/>
      <point x="702" y="1515"/>
      <point x="746" y="1505" type="curve"/>
      <point x="748" y="1376" type="line"/>
      <point x="722" y="1386"/>
      <point x="675" y="1391"/>
      <point x="638" y="1391" type="curve" smooth="yes"/>
      <point x="502" y="1391"/>
      <point x="476" y="1310"/>
      <point x="476" y="1174" type="curve" smooth="yes"/>
      <point x="476" y="117" type="line" smooth="yes"/>
      <point x="476" y="-105"/>
      <point x="402" y="-259"/>
    </contour>
  </outline>
</glyph>
<glyph name="approxequal" format="1">
  <advance width="1328"/>
  <unicode hex="2248"/>
  <outline>
    <contour>
      <point x="278" y="261" type="curve"/>
      <point x="164" y="289" type="line"/>
      <point x="199" y="433"/>
      <point x="293" y="546"/>
      <point x="455" y="546" type="curve" smooth="yes"/>
      <point x="655" y="546"/>
      <point x="783" y="380"/>
      <point x="889" y="380" type="curve" smooth="yes"/>
      <point x="985" y="380"/>
      <point x="1025" y="463"/>
      <point x="1055" y="546" type="curve"/>
      <point x="1165" y="518" type="line"/>
      <point x="1132" y="375"/>
      <point x="1050" y="262"/>
      <point x="883" y="262" type="curve" smooth="yes"/>
      <point x="698" y="262"/>
      <point x="576" y="426"/>
      <point x="452" y="426" type="curve" smooth="yes"/>
      <point x="349" y="426"/>
      <point x="303" y="349"/>
    </contour>
    <contour>
      <point x="277" y="634" type="curve"/>
      <point x="162" y="661" type="line"/>
      <point x="195" y="808"/>
      <point x="289" y="917"/>
      <point x="453" y="917" type="curve" smooth="yes"/>
      <point x="636" y="917"/>
      <point x="774" y="752"/>
      <point x="887" y="752" type="curve" smooth="yes"/>
      <point x="984" y="752"/>
      <point x="1024" y="832"/>
      <point x="1053" y="918" type="curve"/>
      <point x="1163" y="890" type="line"/>
      <point x="1133" y="745"/>
      <point x="1047" y="634"/>
      <point x="881" y="634" type="curve" smooth="yes"/>
      <point x="697" y="634"/>
      <point x="578" y="799"/>
      <point x="449" y="799" type="curve" smooth="yes"/>
      <point x="347" y="799"/>
      <point x="302" y="721"/>
    </contour>
  </outline>
</glyph>
<glyph name="lozenge" format="1">
  <advance width="1197"/>
  <unicode hex="25CA"/>
  <outline>
    <contour>
      <point x="593" y="143" type="line"/>
      <point x="946" y="716" type="line"/>
      <point x="602" y="1310" type="line"/>
      <point x="249" y="718" type="line"/>
    </contour>
    <contour>
      <point x="542" y="0" type="line"/>
      <point x="100" y="716" type="line"/>
      <point x="550" y="1456" type="line"/>
      <point x="652" y="1456" type="line"/>
      <point x="1097" y="717" type="line"/>
      <point x="644" y="0" type="line"/>
    </contour>
  </outline>
</glyph>
<glyph name="k.alt.2" format="1">
  <advance width="1126"/>
  <outline>
    <contour>
      <point x="1120" y="131" type="curve"/>
      <point x="1108" y="-4" type="line"/>
      <point x="1075" y="-17"/>
      <point x="1044" y="-24"/>
      <point x="1015" y="-24" type="curve" smooth="yes"/>
      <point x="898" y="-24"/>
      <point x="812" y="78"/>
      <point x="718" y="206" type="curve" smooth="yes"/>
      <point x="582" y="390" type="line"/>
      <point x="317" y="27" type="line"/>
      <point x="294" y="-1"/>
      <point x="265" y="-15"/>
      <point x="239" y="-15" type="curve" smooth="yes"/>
      <point x="203" y="-15"/>
      <point x="172" y="11"/>
      <point x="172" y="60" type="curve" smooth="yes"/>
      <point x="172" y="1526" type="line"/>
      <point x="336" y="1526" type="line"/>
      <point x="336" y="288" type="line"/>
      <point x="860" y="1026" type="line"/>
      <point x="1008" y="976" type="line"/>
      <point x="671" y="512" type="line"/>
      <point x="831" y="295" type="line" smooth="yes"/>
      <point x="896" y="207"/>
      <point x="960" y="110"/>
      <point x="1048" y="110" type="curve" smooth="yes"/>
      <point x="1070" y="110"/>
      <point x="1094" y="117"/>
    </contour>
  </outline>
</glyph>
<glyph name="lc_kick_2" format="1">
  <advance width="500"/>
  <outline>
    <contour>
      <point x="240" y="235" type="line"/>
      <point x="240" y="154"/>
      <point x="272" y="120"/>
      <point x="347" y="120" type="curve" smooth="yes"/>
      <point x="373" y="120"/>
      <point x="404" y="124"/>
      <point x="441" y="132" type="curve"/>
      <point x="460" y="6" type="line"/>
      <point x="394" y="-13"/>
      <point x="336" y="-22"/>
      <point x="286" y="-22" type="curve" smooth="yes"/>
      <point x="147" y="-22"/>
      <point x="70" y="52"/>
      <point x="70" y="216" type="curve" smooth="yes"/>
    </contour>
  </outline>
</glyph>
